<svg width="100" height="37" viewBox="0 0 100 37" fill="none" xmlns="http://www.w3.org/2000/svg">
<path fill-rule="evenodd" clip-rule="evenodd" d="M14.9596 9.55867C14.4204 8.84177 13.6751 8.33197 12.7237 8.02928C13.4214 7.66286 13.9605 7.16103 14.3411 6.52379C14.7376 5.88654 14.9358 5.16168 14.9358 4.34919C14.9358 3.01098 14.3887 1.95156 13.2945 1.17094C12.2162 0.390312 10.6622 0 8.63242 0H0.497527V15.732H0V36.6416H4.81671V30.8765H9.00904C10.8525 30.8765 12.4481 30.5778 13.796 29.9804C15.1637 29.363 16.2143 28.4868 16.9477 27.3517C17.6811 26.1967 18.0478 24.8525 18.0478 23.3192C18.0478 21.7659 17.6811 20.4217 16.9477 19.2866C16.2143 18.1515 15.1637 17.2753 13.796 16.658C13.4406 16.4952 13.0679 16.3539 12.6781 16.234C13.2016 16.0563 13.6608 15.8305 14.0557 15.5567C15.1974 14.7602 15.7683 13.6291 15.7683 12.1634C15.7683 11.1279 15.4987 10.2596 14.9596 9.55867ZM4.32711 6.85834V2.91539H8.1567C9.10815 2.91539 9.82966 3.08267 10.3212 3.41722C10.8128 3.73585 11.0586 4.22174 11.0586 4.87492C11.0586 5.5281 10.8128 6.02196 10.3212 6.35651C9.82966 6.69107 9.10815 6.85834 8.1567 6.85834H4.32711ZM11.1062 13.3104C10.5988 13.645 9.83759 13.8123 8.82271 13.8123H4.32711V9.67815H8.82271C10.8683 9.67815 11.8911 10.3712 11.8911 11.7572C11.8911 12.4581 11.6295 12.9759 11.1062 13.3104ZM12.0418 26.0075C11.2886 26.6249 10.1884 26.9335 8.74144 26.9335H4.81671V19.6749H8.74144C10.1884 19.6749 11.2886 19.9935 12.0418 20.6308C12.795 21.2481 13.1716 22.1442 13.1716 23.3192C13.1716 24.4742 12.795 25.3703 12.0418 26.0075Z" fill="white"/>
<path d="M31.5778 16.7277V13.6211H22.5152V9.74984H30.2458V6.73886H22.5152V3.10657H31.2686V0H18.6856V16.7277H21.4866V36.6416H36.7395V32.6986H26.3033V16.7277H31.5778Z" fill="white"/>
<path fill-rule="evenodd" clip-rule="evenodd" d="M37.8787 13.1432H45.6092L46.6743 15.732H46.1462L36.8696 36.6416H41.8052L43.6487 32.1609H53.3118L55.1553 36.6416H60.2099L50.9035 15.732H50.6845L43.6826 0H39.8768L32.4555 16.7277H36.404L37.8787 13.1432ZM41.7559 3.79957L44.3962 10.2039H39.1156L41.7559 3.79957ZM48.4951 20.4814L51.7955 28.4868H45.1948L48.4951 20.4814Z" fill="white"/>
<path d="M54.3382 15.031C55.6703 16.3533 57.5256 17.0144 59.9042 17.0144C62.2828 17.0144 64.1302 16.3533 65.4464 15.031C66.7785 13.7087 67.4445 11.8209 67.4445 9.36749V0H63.6387V9.22411C63.6387 10.7694 63.3215 11.9085 62.6872 12.6413C62.0529 13.3582 61.1332 13.7167 59.928 13.7167C57.4542 13.7167 56.2174 12.2192 56.2174 9.22411V0H52.364V9.36749C52.364 11.8209 53.0221 13.7087 54.3382 15.031Z" fill="white"/>
<path d="M69.0944 3.15436H74.4226V15.5718C73.6751 15.4396 72.8906 15.3735 72.0691 15.3735C69.9283 15.3735 67.9957 15.8415 66.2712 16.7774C64.5665 17.6935 63.2186 18.9779 62.2275 20.6308C61.2562 22.2637 60.7706 24.1157 60.7706 26.1868C60.7706 28.2578 61.2562 30.1198 62.2275 31.7726C63.2186 33.4055 64.5665 34.69 66.2712 35.6259C67.9957 36.542 69.9184 37 72.0393 37C73.8431 37 75.4784 36.6814 76.9452 36.0441C78.4121 35.4069 79.641 34.4809 80.6321 33.2661L77.5399 30.3985C76.1325 32.0514 74.3882 32.8778 72.3069 32.8778C71.0185 32.8778 69.8688 32.599 68.8579 32.0414C67.847 31.4639 67.0541 30.6674 66.4793 29.6518C65.9243 28.6362 65.6468 27.4812 65.6468 26.1868C65.6468 24.8924 65.9243 23.7374 66.4793 22.7217C67.0541 21.7061 67.847 20.9195 68.8579 20.3619C69.8688 19.7844 71.0185 19.4957 72.3069 19.4957C74.3882 19.4957 76.1325 20.3122 77.5399 21.9451L80.6321 19.0775C79.8315 18.1123 78.8756 17.329 77.7645 16.7277H78.2759V3.15436H83.6041V0.894068L89.5142 10.7535V15.732H83.8848V36.6416H100V32.7583H88.6718V27.9193H98.335V24.1555H88.6718V19.6152H99.6135V15.732H93.3676V10.8013L99.8374 0H96.0554L91.6074 7.43186L87.1594 0H69.0944V3.15436Z" fill="white"/>
</svg>
